%FSLAX46Y46*%
G04 Gerber Fmt 4.6, Leading zero omitted, Abs format (unit mm)*
G04 Created by KiCad (PCBNEW (2014-jul-16 BZR unknown)-product) date Thu 14 Aug 2014 03:55:34 PM CEST*
%MOMM*%
G01*
G04 APERTURE LIST*
%ADD10C,0.020000*%
%ADD11C,1.397000*%
%ADD12R,1.498600X1.300480*%
%ADD13R,1.300480X1.498600*%
%ADD14R,1.198880X1.198880*%
%ADD15C,4.300000*%
%ADD16C,1.300000*%
%ADD17C,1.600000*%
%ADD18C,2.100000*%
%ADD19O,2.379980X4.759960*%
%ADD20R,1.397000X1.397000*%
%ADD21R,0.599440X1.549400*%
%ADD22R,1.498600X0.398780*%
%ADD23R,1.498600X2.006600*%
%ADD24R,3.810000X2.006600*%
%ADD25R,1.400000X0.250000*%
%ADD26R,0.250000X1.400000*%
%ADD27C,1.501140*%
%ADD28C,4.064000*%
G04 APERTURE END LIST*
D10*
D11*
X72990000Y-52510000D03*
X67910000Y-52510000D03*
X72990000Y-44890000D03*
X67910000Y-44890000D03*
D12*
X54700000Y-31747500D03*
X54700000Y-33652500D03*
D13*
X47152500Y-33200000D03*
X45247500Y-33200000D03*
X39747500Y-50700000D03*
X41652500Y-50700000D03*
X39747500Y-48200000D03*
X41652500Y-48200000D03*
D12*
X59700000Y-33652500D03*
X59700000Y-31747500D03*
D13*
X70152500Y-41950000D03*
X68247500Y-41950000D03*
X65997500Y-24700000D03*
X67902500Y-24700000D03*
X80152500Y-22200000D03*
X78247500Y-22200000D03*
X39747500Y-43200000D03*
X41652500Y-43200000D03*
X25402500Y-33200000D03*
X23497500Y-33200000D03*
X25402500Y-45700000D03*
X23497500Y-45700000D03*
X39747500Y-45700000D03*
X41652500Y-45700000D03*
X23497500Y-40700000D03*
X25402500Y-40700000D03*
X41652500Y-40700000D03*
X39747500Y-40700000D03*
D14*
X47700000Y-48650980D03*
X47700000Y-50749020D03*
X56700000Y-48650980D03*
X56700000Y-50749020D03*
X53700000Y-48650980D03*
X53700000Y-50749020D03*
X50700000Y-48650980D03*
X50700000Y-50749020D03*
D13*
X25402500Y-43200000D03*
X23497500Y-43200000D03*
D15*
X34700000Y-19700000D03*
X23200000Y-19700000D03*
D16*
X33396000Y-26222000D03*
X32126000Y-28762000D03*
X30856000Y-26222000D03*
X29586000Y-28762000D03*
X28316000Y-26222000D03*
X27046000Y-28762000D03*
X25776000Y-26222000D03*
X24506000Y-28762000D03*
D17*
X32700000Y-16200000D03*
X35200000Y-14700000D03*
X22700000Y-16200000D03*
X25200000Y-14700000D03*
D18*
X36950000Y-22700000D03*
X20950000Y-22700000D03*
D19*
X85069360Y-16689580D03*
X80070640Y-16689580D03*
X74909360Y-16689580D03*
X69910640Y-16689580D03*
X64749360Y-16689580D03*
X59750640Y-16689580D03*
D20*
X89950000Y-44990000D03*
D11*
X89950000Y-42450000D03*
X89950000Y-39910000D03*
D20*
X59720000Y-26200000D03*
D11*
X57180000Y-26200000D03*
D12*
X77450000Y-38747500D03*
X77450000Y-40652500D03*
X74950000Y-38747500D03*
X74950000Y-40652500D03*
X57200000Y-31747500D03*
X57200000Y-33652500D03*
X47700000Y-43747500D03*
X47700000Y-45652500D03*
X56700000Y-43747500D03*
X56700000Y-45652500D03*
X53700000Y-43747500D03*
X53700000Y-45652500D03*
X50700000Y-43747500D03*
X50700000Y-45652500D03*
D13*
X25402500Y-38200000D03*
X23497500Y-38200000D03*
X23497500Y-35700000D03*
X25402500Y-35700000D03*
X39747500Y-35700000D03*
X41652500Y-35700000D03*
X41652500Y-38200000D03*
X39747500Y-38200000D03*
D12*
X20950000Y-41247500D03*
X20950000Y-43152500D03*
X20950000Y-35997500D03*
X20950000Y-37902500D03*
D13*
X39747500Y-33200000D03*
X41652500Y-33200000D03*
D21*
X84355000Y-25010140D03*
X83085000Y-25010140D03*
X81815000Y-25010140D03*
X80545000Y-25010140D03*
X80545000Y-30407640D03*
X81815000Y-30407640D03*
X83085000Y-30407640D03*
X84355000Y-30407640D03*
D22*
X36324580Y-43924020D03*
X36324580Y-43273780D03*
X36324580Y-42623540D03*
X36324580Y-41973300D03*
X36324580Y-41323060D03*
X36324580Y-40672820D03*
X36324580Y-40022580D03*
X36324580Y-39377420D03*
X36324580Y-38727180D03*
X36324580Y-38076940D03*
X36324580Y-37426700D03*
X36324580Y-36776460D03*
X36324580Y-36126220D03*
X36324580Y-35475980D03*
X29075420Y-35475980D03*
X29075420Y-36126220D03*
X29075420Y-36776460D03*
X29075420Y-37426700D03*
X29075420Y-38076940D03*
X29075420Y-38727180D03*
X29075420Y-39377420D03*
X29075420Y-40022580D03*
X29075420Y-40672820D03*
X29075420Y-41323060D03*
X29075420Y-41973300D03*
X29075420Y-42623540D03*
X29075420Y-43273780D03*
X29075420Y-43924020D03*
D23*
X45189400Y-29849600D03*
X47475400Y-29849600D03*
X49761400Y-29849600D03*
D24*
X47450000Y-23550400D03*
D25*
X64600440Y-31450320D03*
X64600440Y-31950700D03*
X64600440Y-32451080D03*
X64600440Y-32948920D03*
X64600440Y-33449300D03*
X64600440Y-29949180D03*
X64600440Y-30449560D03*
X64600440Y-30949940D03*
D26*
X65949180Y-36799560D03*
X66449560Y-36799560D03*
X66949940Y-36799560D03*
X67450320Y-36799560D03*
X67950700Y-36799560D03*
X68451080Y-36799560D03*
X68948920Y-36799560D03*
X69449300Y-36799560D03*
D25*
X72799560Y-35450820D03*
X72799560Y-34950440D03*
X72799560Y-34450060D03*
X72799560Y-33949680D03*
X72799560Y-33449300D03*
X72799560Y-32948920D03*
X72799560Y-32451080D03*
X72799560Y-31950700D03*
D26*
X71450820Y-28600440D03*
X70950440Y-28600440D03*
X70450060Y-28600440D03*
X69949680Y-28600440D03*
X69449300Y-28600440D03*
X68948920Y-28600440D03*
X68451080Y-28600440D03*
X67950700Y-28600440D03*
D25*
X64600440Y-33949680D03*
X64600440Y-34450060D03*
X64600440Y-34950440D03*
X64600440Y-35450820D03*
D26*
X69949680Y-36799560D03*
X70450060Y-36799560D03*
X70950440Y-36799560D03*
X71450820Y-36799560D03*
D25*
X72799560Y-31450320D03*
X72799560Y-30949940D03*
X72799560Y-30449560D03*
X72799560Y-29949180D03*
D26*
X67450320Y-28600440D03*
X66949940Y-28600440D03*
X66449560Y-28600440D03*
X65949180Y-28600440D03*
D21*
X80545000Y-42389860D03*
X81815000Y-42389860D03*
X83085000Y-42389860D03*
X84355000Y-42389860D03*
X84355000Y-36992360D03*
X83085000Y-36992360D03*
X81815000Y-36992360D03*
X80545000Y-36992360D03*
D27*
X29259060Y-49450000D03*
X34140940Y-49450000D03*
D28*
X42200000Y-16450000D03*
X21950000Y-51200000D03*
X91950000Y-16700000D03*
X91950000Y-51200000D03*
D20*
X89950000Y-24100000D03*
D11*
X89950000Y-26640000D03*
X89950000Y-29180000D03*
X89950000Y-31720000D03*
X89950000Y-34260000D03*
D19*
X54699360Y-16649580D03*
X49700640Y-16649580D03*
M02*
