%FSLAX46Y46*%
G04 Gerber Fmt 4.6, Leading zero omitted, Abs format (unit mm)*
G04 Created by KiCad (PCBNEW (2014-jul-16 BZR unknown)-product) date Thu 14 Aug 2014 03:55:34 PM CEST*
%MOMM*%
G01*
G04 APERTURE LIST*
%ADD10C,0.020000*%
%ADD11C,0.300000*%
G04 APERTURE END LIST*
D10*
D11*
X62842858Y-35878571D02*
X62842858Y-36950000D01*
X62914286Y-37164286D01*
X63057143Y-37307143D01*
X63271429Y-37378571D01*
X63414286Y-37378571D01*
X61914286Y-37378571D02*
X62057144Y-37307143D01*
X62128572Y-37235714D01*
X62200001Y-37092857D01*
X62200001Y-36664286D01*
X62128572Y-36521429D01*
X62057144Y-36450000D01*
X61914286Y-36378571D01*
X61700001Y-36378571D01*
X61557144Y-36450000D01*
X61485715Y-36521429D01*
X61414286Y-36664286D01*
X61414286Y-37092857D01*
X61485715Y-37235714D01*
X61557144Y-37307143D01*
X61700001Y-37378571D01*
X61914286Y-37378571D01*
X60842858Y-37307143D02*
X60700001Y-37378571D01*
X60414286Y-37378571D01*
X60271429Y-37307143D01*
X60200001Y-37164286D01*
X60200001Y-37092857D01*
X60271429Y-36950000D01*
X60414286Y-36878571D01*
X60628572Y-36878571D01*
X60771429Y-36807143D01*
X60842858Y-36664286D01*
X60842858Y-36592857D01*
X60771429Y-36450000D01*
X60628572Y-36378571D01*
X60414286Y-36378571D01*
X60271429Y-36450000D01*
X58985715Y-37307143D02*
X59128572Y-37378571D01*
X59414286Y-37378571D01*
X59557143Y-37307143D01*
X59628572Y-37164286D01*
X59628572Y-36592857D01*
X59557143Y-36450000D01*
X59414286Y-36378571D01*
X59128572Y-36378571D01*
X58985715Y-36450000D01*
X58914286Y-36592857D01*
X58914286Y-36735714D01*
X59628572Y-36878571D01*
X58485715Y-36378571D02*
X57914286Y-36378571D01*
X58271429Y-37378571D02*
X58271429Y-36092857D01*
X58200001Y-35950000D01*
X58057143Y-35878571D01*
X57914286Y-35878571D01*
X55485715Y-35950000D02*
X55628572Y-35878571D01*
X55842858Y-35878571D01*
X56057143Y-35950000D01*
X56200001Y-36092857D01*
X56271429Y-36235714D01*
X56342858Y-36521429D01*
X56342858Y-36735714D01*
X56271429Y-37021429D01*
X56200001Y-37164286D01*
X56057143Y-37307143D01*
X55842858Y-37378571D01*
X55700001Y-37378571D01*
X55485715Y-37307143D01*
X55414286Y-37235714D01*
X55414286Y-36735714D01*
X55700001Y-36735714D01*
X54128572Y-37378571D02*
X54128572Y-36592857D01*
X54200001Y-36450000D01*
X54342858Y-36378571D01*
X54628572Y-36378571D01*
X54771429Y-36450000D01*
X54128572Y-37307143D02*
X54271429Y-37378571D01*
X54628572Y-37378571D01*
X54771429Y-37307143D01*
X54842858Y-37164286D01*
X54842858Y-37021429D01*
X54771429Y-36878571D01*
X54628572Y-36807143D01*
X54271429Y-36807143D01*
X54128572Y-36735714D01*
X53414286Y-36378571D02*
X53414286Y-37664286D01*
X53485715Y-37807143D01*
X53628572Y-37878571D01*
X53700000Y-37878571D01*
X53414286Y-35878571D02*
X53485715Y-35950000D01*
X53414286Y-36021429D01*
X53342858Y-35950000D01*
X53414286Y-35878571D01*
X53414286Y-36021429D01*
X52057143Y-37378571D02*
X52057143Y-35878571D01*
X52057143Y-37307143D02*
X52200000Y-37378571D01*
X52485714Y-37378571D01*
X52628572Y-37307143D01*
X52700000Y-37235714D01*
X52771429Y-37092857D01*
X52771429Y-36664286D01*
X52700000Y-36521429D01*
X52628572Y-36450000D01*
X52485714Y-36378571D01*
X52200000Y-36378571D01*
X52057143Y-36450000D01*
X50700000Y-36378571D02*
X50700000Y-37378571D01*
X51342857Y-36378571D02*
X51342857Y-37164286D01*
X51271429Y-37307143D01*
X51128571Y-37378571D01*
X50914286Y-37378571D01*
X50771429Y-37307143D01*
X50700000Y-37235714D01*
X50057143Y-37307143D02*
X49914286Y-37378571D01*
X49628571Y-37378571D01*
X49485714Y-37307143D01*
X49414286Y-37164286D01*
X49414286Y-37092857D01*
X49485714Y-36950000D01*
X49628571Y-36878571D01*
X49842857Y-36878571D01*
X49985714Y-36807143D01*
X50057143Y-36664286D01*
X50057143Y-36592857D01*
X49985714Y-36450000D01*
X49842857Y-36378571D01*
X49628571Y-36378571D01*
X49485714Y-36450000D01*
X48200000Y-37307143D02*
X48342857Y-37378571D01*
X48628571Y-37378571D01*
X48771428Y-37307143D01*
X48842857Y-37164286D01*
X48842857Y-36592857D01*
X48771428Y-36450000D01*
X48628571Y-36378571D01*
X48342857Y-36378571D01*
X48200000Y-36450000D01*
X48128571Y-36592857D01*
X48128571Y-36735714D01*
X48842857Y-36878571D01*
X47485714Y-37378571D02*
X47485714Y-35878571D01*
X47342857Y-36807143D02*
X46914286Y-37378571D01*
X46914286Y-36378571D02*
X47485714Y-36950000D01*
X43985714Y-36378571D02*
X45128571Y-36807143D01*
X43985714Y-37235714D01*
X42628571Y-37378571D02*
X42628571Y-36592857D01*
X42700000Y-36450000D01*
X42842857Y-36378571D01*
X43128571Y-36378571D01*
X43271428Y-36450000D01*
X42628571Y-37307143D02*
X42771428Y-37378571D01*
X43128571Y-37378571D01*
X43271428Y-37307143D01*
X43342857Y-37164286D01*
X43342857Y-37021429D01*
X43271428Y-36878571D01*
X43128571Y-36807143D01*
X42771428Y-36807143D01*
X42628571Y-36735714D01*
X42128571Y-36378571D02*
X41557142Y-36378571D01*
X41914285Y-35878571D02*
X41914285Y-37164286D01*
X41842857Y-37307143D01*
X41699999Y-37378571D01*
X41557142Y-37378571D01*
X41199999Y-37378571D02*
X40414285Y-36378571D01*
X41199999Y-36378571D02*
X40414285Y-37378571D01*
X38914285Y-36664286D02*
X38985713Y-36592857D01*
X39128570Y-36521429D01*
X39271428Y-36521429D01*
X39414285Y-36592857D01*
X39485713Y-36664286D01*
X39557142Y-36807143D01*
X39557142Y-36950000D01*
X39485713Y-37092857D01*
X39414285Y-37164286D01*
X39271428Y-37235714D01*
X39128570Y-37235714D01*
X38985713Y-37164286D01*
X38914285Y-37092857D01*
X38914285Y-36521429D02*
X38914285Y-37092857D01*
X38842856Y-37164286D01*
X38771428Y-37164286D01*
X38628570Y-37092857D01*
X38557142Y-36950000D01*
X38557142Y-36592857D01*
X38699999Y-36378571D01*
X38914285Y-36235714D01*
X39199999Y-36164286D01*
X39485713Y-36235714D01*
X39699999Y-36378571D01*
X39842856Y-36592857D01*
X39914285Y-36878571D01*
X39842856Y-37164286D01*
X39699999Y-37378571D01*
X39485713Y-37521429D01*
X39199999Y-37592857D01*
X38914285Y-37521429D01*
X38699999Y-37378571D01*
X37271428Y-37378571D02*
X37271428Y-36592857D01*
X37342857Y-36450000D01*
X37485714Y-36378571D01*
X37771428Y-36378571D01*
X37914285Y-36450000D01*
X37271428Y-37307143D02*
X37414285Y-37378571D01*
X37771428Y-37378571D01*
X37914285Y-37307143D01*
X37985714Y-37164286D01*
X37985714Y-37021429D01*
X37914285Y-36878571D01*
X37771428Y-36807143D01*
X37414285Y-36807143D01*
X37271428Y-36735714D01*
X36771428Y-36378571D02*
X36199999Y-36378571D01*
X36557142Y-35878571D02*
X36557142Y-37164286D01*
X36485714Y-37307143D01*
X36342856Y-37378571D01*
X36199999Y-37378571D01*
X35842856Y-37378571D02*
X35057142Y-36378571D01*
X35842856Y-36378571D02*
X35057142Y-37378571D01*
X34485713Y-37235714D02*
X34414285Y-37307143D01*
X34485713Y-37378571D01*
X34557142Y-37307143D01*
X34485713Y-37235714D01*
X34485713Y-37378571D01*
X33771427Y-36378571D02*
X33771427Y-37378571D01*
X33771427Y-36521429D02*
X33699999Y-36450000D01*
X33557141Y-36378571D01*
X33342856Y-36378571D01*
X33199999Y-36450000D01*
X33128570Y-36592857D01*
X33128570Y-37378571D01*
X31771427Y-37378571D02*
X31771427Y-36592857D01*
X31842856Y-36450000D01*
X31985713Y-36378571D01*
X32271427Y-36378571D01*
X32414284Y-36450000D01*
X31771427Y-37307143D02*
X31914284Y-37378571D01*
X32271427Y-37378571D01*
X32414284Y-37307143D01*
X32485713Y-37164286D01*
X32485713Y-37021429D01*
X32414284Y-36878571D01*
X32271427Y-36807143D01*
X31914284Y-36807143D01*
X31771427Y-36735714D01*
X31057141Y-37378571D02*
X31057141Y-36378571D01*
X31057141Y-36521429D02*
X30985713Y-36450000D01*
X30842855Y-36378571D01*
X30628570Y-36378571D01*
X30485713Y-36450000D01*
X30414284Y-36592857D01*
X30414284Y-37378571D01*
X30414284Y-36592857D02*
X30342855Y-36450000D01*
X30199998Y-36378571D01*
X29985713Y-36378571D01*
X29842855Y-36450000D01*
X29771427Y-36592857D01*
X29771427Y-37378571D01*
X28485713Y-37307143D02*
X28628570Y-37378571D01*
X28914284Y-37378571D01*
X29057141Y-37307143D01*
X29128570Y-37164286D01*
X29128570Y-36592857D01*
X29057141Y-36450000D01*
X28914284Y-36378571D01*
X28628570Y-36378571D01*
X28485713Y-36450000D01*
X28414284Y-36592857D01*
X28414284Y-36735714D01*
X29128570Y-36878571D01*
X27771427Y-36378571D02*
X26628570Y-36807143D01*
X27771427Y-37235714D01*
X57307142Y-34128571D02*
X57807142Y-33414286D01*
X58164285Y-34128571D02*
X58164285Y-32628571D01*
X57592857Y-32628571D01*
X57449999Y-32700000D01*
X57378571Y-32771429D01*
X57307142Y-32914286D01*
X57307142Y-33128571D01*
X57378571Y-33271429D01*
X57449999Y-33342857D01*
X57592857Y-33414286D01*
X58164285Y-33414286D01*
X56092857Y-34057143D02*
X56235714Y-34128571D01*
X56521428Y-34128571D01*
X56664285Y-34057143D01*
X56735714Y-33914286D01*
X56735714Y-33342857D01*
X56664285Y-33200000D01*
X56521428Y-33128571D01*
X56235714Y-33128571D01*
X56092857Y-33200000D01*
X56021428Y-33342857D01*
X56021428Y-33485714D01*
X56735714Y-33628571D01*
X55592857Y-33128571D02*
X55021428Y-33128571D01*
X55378571Y-34128571D02*
X55378571Y-32842857D01*
X55307143Y-32700000D01*
X55164285Y-32628571D01*
X55021428Y-32628571D01*
X54307142Y-34128571D02*
X54450000Y-34057143D01*
X54521428Y-33914286D01*
X54521428Y-32628571D01*
X53521428Y-34128571D02*
X53664286Y-34057143D01*
X53735714Y-33985714D01*
X53807143Y-33842857D01*
X53807143Y-33414286D01*
X53735714Y-33271429D01*
X53664286Y-33200000D01*
X53521428Y-33128571D01*
X53307143Y-33128571D01*
X53164286Y-33200000D01*
X53092857Y-33271429D01*
X53021428Y-33414286D01*
X53021428Y-33842857D01*
X53092857Y-33985714D01*
X53164286Y-34057143D01*
X53307143Y-34128571D01*
X53521428Y-34128571D01*
X52521428Y-33128571D02*
X52235714Y-34128571D01*
X51950000Y-33414286D01*
X51664285Y-34128571D01*
X51378571Y-33128571D01*
X49378571Y-32628571D02*
X49092857Y-32628571D01*
X48949999Y-32700000D01*
X48807142Y-32842857D01*
X48735714Y-33128571D01*
X48735714Y-33628571D01*
X48807142Y-33914286D01*
X48949999Y-34057143D01*
X49092857Y-34128571D01*
X49378571Y-34128571D01*
X49521428Y-34057143D01*
X49664285Y-33914286D01*
X49735714Y-33628571D01*
X49735714Y-33128571D01*
X49664285Y-32842857D01*
X49521428Y-32700000D01*
X49378571Y-32628571D01*
X48235713Y-33128571D02*
X47878570Y-34128571D01*
X47521428Y-33128571D01*
X46378571Y-34057143D02*
X46521428Y-34128571D01*
X46807142Y-34128571D01*
X46949999Y-34057143D01*
X47021428Y-33914286D01*
X47021428Y-33342857D01*
X46949999Y-33200000D01*
X46807142Y-33128571D01*
X46521428Y-33128571D01*
X46378571Y-33200000D01*
X46307142Y-33342857D01*
X46307142Y-33485714D01*
X47021428Y-33628571D01*
X45664285Y-33128571D02*
X45664285Y-34128571D01*
X45664285Y-33271429D02*
X45592857Y-33200000D01*
X45449999Y-33128571D01*
X45235714Y-33128571D01*
X45092857Y-33200000D01*
X45021428Y-33342857D01*
X45021428Y-34128571D01*
X42307142Y-33985714D02*
X42378571Y-34057143D01*
X42592857Y-34128571D01*
X42735714Y-34128571D01*
X42949999Y-34057143D01*
X43092857Y-33914286D01*
X43164285Y-33771429D01*
X43235714Y-33485714D01*
X43235714Y-33271429D01*
X43164285Y-32985714D01*
X43092857Y-32842857D01*
X42949999Y-32700000D01*
X42735714Y-32628571D01*
X42592857Y-32628571D01*
X42378571Y-32700000D01*
X42307142Y-32771429D01*
X41449999Y-34128571D02*
X41592857Y-34057143D01*
X41664285Y-33985714D01*
X41735714Y-33842857D01*
X41735714Y-33414286D01*
X41664285Y-33271429D01*
X41592857Y-33200000D01*
X41449999Y-33128571D01*
X41235714Y-33128571D01*
X41092857Y-33200000D01*
X41021428Y-33271429D01*
X40949999Y-33414286D01*
X40949999Y-33842857D01*
X41021428Y-33985714D01*
X41092857Y-34057143D01*
X41235714Y-34128571D01*
X41449999Y-34128571D01*
X40307142Y-33128571D02*
X40307142Y-34128571D01*
X40307142Y-33271429D02*
X40235714Y-33200000D01*
X40092856Y-33128571D01*
X39878571Y-33128571D01*
X39735714Y-33200000D01*
X39664285Y-33342857D01*
X39664285Y-34128571D01*
X39164285Y-33128571D02*
X38592856Y-33128571D01*
X38949999Y-32628571D02*
X38949999Y-33914286D01*
X38878571Y-34057143D01*
X38735713Y-34128571D01*
X38592856Y-34128571D01*
X38092856Y-34128571D02*
X38092856Y-33128571D01*
X38092856Y-33414286D02*
X38021428Y-33271429D01*
X37949999Y-33200000D01*
X37807142Y-33128571D01*
X37664285Y-33128571D01*
X36949999Y-34128571D02*
X37092857Y-34057143D01*
X37164285Y-33985714D01*
X37235714Y-33842857D01*
X37235714Y-33414286D01*
X37164285Y-33271429D01*
X37092857Y-33200000D01*
X36949999Y-33128571D01*
X36735714Y-33128571D01*
X36592857Y-33200000D01*
X36521428Y-33271429D01*
X36449999Y-33414286D01*
X36449999Y-33842857D01*
X36521428Y-33985714D01*
X36592857Y-34057143D01*
X36735714Y-34128571D01*
X36949999Y-34128571D01*
X35592856Y-34128571D02*
X35735714Y-34057143D01*
X35807142Y-33914286D01*
X35807142Y-32628571D01*
X34807142Y-34128571D02*
X34950000Y-34057143D01*
X35021428Y-33914286D01*
X35021428Y-32628571D01*
X33664286Y-34057143D02*
X33807143Y-34128571D01*
X34092857Y-34128571D01*
X34235714Y-34057143D01*
X34307143Y-33914286D01*
X34307143Y-33342857D01*
X34235714Y-33200000D01*
X34092857Y-33128571D01*
X33807143Y-33128571D01*
X33664286Y-33200000D01*
X33592857Y-33342857D01*
X33592857Y-33485714D01*
X34307143Y-33628571D01*
X32950000Y-34128571D02*
X32950000Y-33128571D01*
X32950000Y-33414286D02*
X32878572Y-33271429D01*
X32807143Y-33200000D01*
X32664286Y-33128571D01*
X32521429Y-33128571D01*
M02*
