%FSLAX46Y46*%
G04 Gerber Fmt 4.6, Leading zero omitted, Abs format (unit mm)*
G04 Created by KiCad (PCBNEW (2014-jul-16 BZR unknown)-product) date Thu 14 Aug 2014 03:55:34 PM CEST*
%MOMM*%
G01*
G04 APERTURE LIST*
%ADD10C,0.020000*%
%ADD11C,1.397000*%
%ADD12C,4.300000*%
%ADD13C,1.300000*%
%ADD14C,1.600000*%
%ADD15C,2.100000*%
%ADD16O,2.379980X4.759960*%
%ADD17R,1.397000X1.397000*%
%ADD18C,1.501140*%
%ADD19C,4.064000*%
G04 APERTURE END LIST*
D10*
D11*
X72990000Y-52510000D03*
X67910000Y-52510000D03*
X72990000Y-44890000D03*
X67910000Y-44890000D03*
D12*
X34700000Y-19700000D03*
X23200000Y-19700000D03*
D13*
X33396000Y-26222000D03*
X32126000Y-28762000D03*
X30856000Y-26222000D03*
X29586000Y-28762000D03*
X28316000Y-26222000D03*
X27046000Y-28762000D03*
X25776000Y-26222000D03*
X24506000Y-28762000D03*
D14*
X32700000Y-16200000D03*
X35200000Y-14700000D03*
X22700000Y-16200000D03*
X25200000Y-14700000D03*
D15*
X36950000Y-22700000D03*
X20950000Y-22700000D03*
D16*
X85069360Y-16689580D03*
X80070640Y-16689580D03*
X74909360Y-16689580D03*
X69910640Y-16689580D03*
X64749360Y-16689580D03*
X59750640Y-16689580D03*
D17*
X89950000Y-44990000D03*
D11*
X89950000Y-42450000D03*
X89950000Y-39910000D03*
D17*
X59720000Y-26200000D03*
D11*
X57180000Y-26200000D03*
D18*
X29259060Y-49450000D03*
X34140940Y-49450000D03*
D19*
X42200000Y-16450000D03*
X21950000Y-51200000D03*
X91950000Y-16700000D03*
X91950000Y-51200000D03*
D17*
X89950000Y-24100000D03*
D11*
X89950000Y-26640000D03*
X89950000Y-29180000D03*
X89950000Y-31720000D03*
X89950000Y-34260000D03*
D16*
X54699360Y-16649580D03*
X49700640Y-16649580D03*
M02*
