M48
INCH,TZ
T1C0.014
T2C0.020
T3C0.032
T4C0.032
T5C0.037
T6C0.043
T7C0.055
T8C0.063
T9C0.065
T10C0.120
T11C0.130
%
G90
G05
T1
X008248Y-013465
X008543Y-017500
X008642Y-015531
X010610Y-016811
X010709Y-015925
X010709Y-017205
X011201Y-013661
X012087Y-017106
X012480Y-014252
X012776Y-014154
X012776Y-015236
X013563Y-015138
X014831Y-016268
X014843Y-015236
X014843Y-015748
X014941Y-017008
X014941Y-017992
X015106Y-014992
X015157Y-016024
X015157Y-016520
X015165Y-015504
X017008Y-014055
X021748Y-016024
X022106Y-015504
X022323Y-015236
X022559Y-014988
X024587Y-014547
X024783Y-013563
X024819Y-013945
X026220Y-012047
X026260Y-012677
X026555Y-010610
X027343Y-013858
X027638Y-013366
X028031Y-012972
X028228Y-014941
X028228Y-016319
X029311Y-013268
X029508Y-014449
X029606Y-012972
X030492Y-016417
X030492Y-017205
X031693Y-009291
T2
X018681Y-010709
X032709Y-008130
T3
X011519Y-019469
X013441Y-019469
T4
X022512Y-010315
X023512Y-010315
X026736Y-017673
X026736Y-020673
X028736Y-017673
X028736Y-020673
X035413Y-009488
X035413Y-010488
X035413Y-011488
X035413Y-012488
X035413Y-013488
X035413Y-015713
X035413Y-016713
X035413Y-017713
T5
X009648Y-011324
X010148Y-010324
X010648Y-011324
X011148Y-010324
X011648Y-011324
X012148Y-010324
X012648Y-011324
X013148Y-010324
T6
X008937Y-006378
X009921Y-005787
X012874Y-006378
X013858Y-005787
T7
X019567Y-006555
X021535Y-006555
X023524Y-006571
X025492Y-006571
X027524Y-006571
X029492Y-006571
X031524Y-006571
X033492Y-006571
T8
X008248Y-008937
T9
X014547Y-008937
T10
X008642Y-020157
X016614Y-006476
X036201Y-006575
X036201Y-020157
T11
X009134Y-007756
X013661Y-007756
T0
M30
